# xmcd
#
# Track frame offsets: 
#        150
#        20705
#        42315
#        62140
#        87700
#        110053
#        123473
#        142223
#        159508
#        178893
#        201260
#        244238
#        273495
#
# Disc length: 4253 seconds
#
# Revision: 0
# Processed by: cddbd v1.4PL0 Copyright (c) Steve Scherf et al.
# Submitted via: ExactAudioCopy v0.90b4
#
DISCID=d1109b0d
DTITLE=Sunset Heights - Texas Tea
DYEAR=1993
DGENRE=Blues
TTITLE0=Man Of The World
TTITLE1=Movin' On
TTITLE2=Dangerous Moves
TTITLE3=Runnin' Blind
TTITLE4=Missing You
TTITLE5=Only Time Will Tell
TTITLE6=Sally Jo
TTITLE7=Save Yourself
TTITLE8=Different Colored Dancer
TTITLE9=Politician
TTITLE10=Dreamin' Girl (Pt.1)
TTITLE11=She Left Me
TTITLE12=Whiskey Woman
EXTD=
EXTT0=
EXTT1=
EXTT2=
EXTT3=
EXTT4=
EXTT5=
EXTT6=
EXTT7=
EXTT8=
EXTT9=
EXTT10=
EXTT11=
EXTT12=
PLAYORDER=
